# xmcd
#
# Track frame offsets: 
#        150
#        16224
#        71222
#        113365
#        167228
#        206087
#        227470
#        241145
#
# Disc length: 3401 seconds
#
# Revision: 2
# Processed by: cddbd v1.5.2PL0 Copyright (c) Steve Scherf et al.
# Submitted via: ExactAudioCopyFreeDBPlugin 1.0
#
DISCID=5f0d4708
DTITLE=Punch Brothers - Punch
DYEAR=2008
DGENRE=Bluegrass
TTITLE0=Punch Bowl
TTITLE1=The Blind Leaving the Blind: 1st Movement
TTITLE2=The Blind Leaving the Blind: 2nd Movement
TTITLE3=The Blind Leaving the Blind: 3rd Movement
TTITLE4=The Blind Leaving the Blind: 4th Movement
TTITLE5=Sometimes
TTITLE6=Nothing, Then
TTITLE7=It'll Happen
EXTD=YEAR: 2008
EXTT0=
EXTT1=
EXTT2=
EXTT3=
EXTT4=
EXTT5=
EXTT6=
EXTT7=
PLAYORDER=
